<svg xmlns="http://www.w3.org/2000/svg" viewBox="0 0 1600 900">
  <rect width="1600" height="900" fill="#efe0bd"/>
  <circle cx="1195" cy="155" r="90" fill="#edc76c" opacity=".65"/>
  <path d="M0 410 C160 170 260 360 360 150 C455 -15 555 300 660 170 C760 45 845 245 945 130 C1080 -15 1170 320 1285 160 C1405 -5 1490 225 1600 90 L1600 900 L0 900Z" fill="#62724d" opacity=".35"/>
  <path d="M0 515 C145 285 265 480 392 250 C505 50 612 430 740 240 C855 60 965 390 1085 205 C1228 0 1340 425 1600 185 L1600 900 L0 900Z" fill="#4f623f" opacity=".72"/>
  <path d="M0 645 C285 575 460 690 735 610 C980 540 1160 655 1600 560 L1600 900 L0 900Z" fill="#d7c18f"/>
  <path d="M0 710 C300 650 520 740 780 675 C1030 610 1220 710 1600 630 L1600 900 L0 900Z" fill="#6f7c45"/>
  <path d="M0 775 C320 720 540 800 820 735 C1075 675 1275 760 1600 705 L1600 900 L0 900Z" fill="#efe0bd" opacity=".35"/>
</svg>
